<svg width="24" height="24" viewBox="0 0 24 24" fill="none" xmlns="http://www.w3.org/2000/svg">
<path d="M12 21C10.9 21 9.85833 20.8083 8.875 20.425C7.89167 20.0417 7 19.5167 6.2 18.85L4.25 20.8L3.2 19.75L5.15 17.8C4.48333 17 3.95833 16.1083 3.575 15.125C3.19167 14.1417 3 13.1 3 12C3 9.5 3.87917 7.375 5.6375 5.625C7.39583 3.875 9.51667 3 12 3H21V12C21 14.4833 20.125 16.6042 18.375 18.3625C16.625 20.1208 14.5 21 12 21ZM12 19.5C14.0833 19.5 15.8542 18.7708 17.3125 17.3125C18.7708 15.8542 19.5 14.0833 19.5 12V4.5H12C9.91667 4.5 8.14583 5.22917 6.6875 6.6875C5.22917 8.14583 4.5 9.91667 4.5 12C4.5 14.0833 5.22917 15.8542 6.6875 17.3125C8.14583 18.7708 9.91667 19.5 12 19.5ZM10.675 16.875L15.85 12.25C16.0167 12.1 16.0667 11.9208 16 11.7125C15.9333 11.5042 15.7833 11.3833 15.55 11.35L11.5 10.95L13.925 7.625C13.9917 7.54167 14.0208 7.45417 14.0125 7.3625C14.0042 7.27083 13.9667 7.18333 13.9 7.1C13.8167 7.01667 13.7208 6.975 13.6125 6.975C13.5042 6.975 13.4083 7.01667 13.325 7.1L8.175 11.725C8.00833 11.875 7.95833 12.0542 8.025 12.2625C8.09167 12.4708 8.24167 12.5917 8.475 12.625L12.525 13.025L10.075 16.35C10.025 16.4333 10 16.5208 10 16.6125C10 16.7042 10.0417 16.7917 10.125 16.875C10.2083 16.9583 10.3 17 10.4 17C10.5 17 10.5917 16.9583 10.675 16.875Z" fill="white"/>
</svg>
