<svg width="30" height="30" viewBox="0 0 30 30" fill="none" xmlns="http://www.w3.org/2000/svg">
<path d="M15 30C13.2222 30 11.5417 29.7083 9.95833 29.125C8.375 28.5417 6.94444 27.7361 5.66667 26.7083L2.375 30L0 27.625L3.29167 24.3333C2.26389 23.0556 1.45833 21.6178 0.875 20.02C0.291667 18.4233 0 16.75 0 15C0 10.8333 1.46556 7.29167 4.39667 4.375C7.32667 1.45833 10.8611 0 15 0H30V15C30 19.1389 28.5417 22.6739 25.625 25.605C22.7083 28.535 19.1667 30 15 30ZM15 26.6667C18.25 26.6667 21.0067 25.5278 23.27 23.25C25.5344 20.9722 26.6667 18.2222 26.6667 15V3.33333H15C11.7778 3.33333 9.02778 4.465 6.75 6.72833C4.47222 8.99278 3.33333 11.75 3.33333 15C3.33333 18.2222 4.47222 20.9722 6.75 23.25C9.02778 25.5278 11.7778 26.6667 15 26.6667ZM12.7917 23.125L21.4167 15.4167C21.6944 15.1667 21.7778 14.8678 21.6667 14.52C21.5556 14.1733 21.3056 13.9722 20.9167 13.9167L14.1667 13.25L18.2083 7.70833C18.3194 7.56944 18.3678 7.42333 18.3533 7.27C18.34 7.11778 18.2778 6.97222 18.1667 6.83333C18.0278 6.69444 17.8683 6.625 17.6883 6.625C17.5072 6.625 17.3472 6.69444 17.2083 6.83333L8.625 14.5417C8.34722 14.7917 8.26389 15.09 8.375 15.4367C8.48611 15.7844 8.73611 15.9861 9.125 16.0417L15.875 16.7083L11.7917 22.25C11.7083 22.3889 11.6667 22.535 11.6667 22.6883C11.6667 22.8406 11.7361 22.9861 11.875 23.125C12.0139 23.2639 12.1667 23.3333 12.3333 23.3333C12.5 23.3333 12.6528 23.2639 12.7917 23.125Z" fill="#4C9C2E"/>
</svg>
