<svg width="37" height="36" viewBox="0 0 37 36" fill="none" xmlns="http://www.w3.org/2000/svg">
<path d="M18.2092 0C8.26704 0 0.209229 8.05781 0.209229 18C0.209229 27.9422 8.26704 36 18.2092 36C28.1514 36 36.2092 27.9422 36.2092 18C36.2092 8.05781 28.1514 0 18.2092 0ZM18.2092 9C21.0056 9 23.2717 11.2669 23.2717 14.0625C23.2717 16.8581 21.0077 19.125 18.2092 19.125C15.4136 19.125 13.1467 16.8581 13.1467 14.0625C13.1467 11.2669 15.4108 9 18.2092 9ZM18.2092 31.5C14.4876 31.5 11.1147 29.9862 8.66782 27.5421C9.80688 24.6023 12.6194 22.5 15.9592 22.5H20.4592C23.8019 22.5 26.6144 24.6009 27.7506 27.5421C25.3038 29.9883 21.9288 31.5 18.2092 31.5Z" fill="#929292"/>
</svg>
